<svg width="3288" height="941" viewBox="0 0 3288 941" fill="none" xmlns="http://www.w3.org/2000/svg">
<path d="M1570.13 358.355V247.072H1686.93V358.355H1767.66V460.895H1686.93V603.974C1686.93 621.991 1690.85 634.71 1698.69 642.129C1707.05 649.548 1717.49 653.523 1730.04 654.053C1742.58 654.053 1755.12 652.993 1767.66 650.873V751.824C1741.02 756.591 1715.68 757.917 1691.63 755.797C1667.6 754.207 1646.43 747.848 1628.14 736.72C1610.37 725.591 1596.26 709.164 1585.81 687.437C1575.36 665.71 1570.13 637.889 1570.13 603.974V460.895H1515.26V358.355H1570.13ZM2187.08 755.797H2082.82L2074.98 712.079C2061.92 726.917 2046.5 738.839 2028.73 747.848C2011.49 756.857 1992.41 761.36 1971.5 761.36C1942.24 761.36 1916.9 754.737 1895.48 741.489C1874.05 728.241 1857.32 708.899 1845.31 683.463C1833.28 657.497 1827.29 626.497 1827.29 590.462V358.355H1941.73V576.154C1941.73 602.65 1946.95 622.787 1957.4 636.565C1968.37 650.343 1984.83 657.232 2006.78 657.232C2027.69 657.232 2043.89 650.078 2055.39 635.769C2066.89 621.461 2072.63 601.06 2072.63 574.564V358.355H2187.08V755.797ZM2305.01 358.355V247.072H2421.8V358.355H2502.55V460.895H2421.8V603.974C2421.8 621.991 2425.72 634.71 2433.57 642.129C2441.93 649.548 2452.38 653.523 2464.92 654.053C2477.47 654.053 2490.01 652.993 2502.55 650.873V751.824C2475.89 756.591 2450.55 757.917 2426.51 755.797C2402.47 754.207 2381.31 747.848 2363.01 736.72C2345.24 725.591 2331.14 709.164 2320.69 687.437C2310.24 665.71 2305.01 637.889 2305.01 603.974V460.895H2250.13V358.355H2305.01ZM2748.71 761.36C2710.57 761.36 2676.34 753.147 2646.03 736.72C2615.72 720.292 2591.94 696.711 2574.7 665.975C2557.98 635.24 2549.62 598.94 2549.62 557.076C2549.62 515.212 2558.24 479.177 2575.49 448.973C2593.26 418.237 2617.3 394.654 2647.59 378.227C2678.43 361.271 2712.66 352.792 2750.29 352.792C2788.96 352.792 2823.45 361.271 2853.76 378.227C2884.58 394.654 2908.88 418.237 2926.65 448.973C2944.42 479.177 2953.31 514.948 2953.31 556.282C2953.31 598.675 2944.16 635.24 2925.88 665.975C2908.11 696.711 2883.54 720.292 2852.18 736.72C2821.36 753.147 2786.87 761.36 2748.71 761.36ZM2748.71 656.437C2762.3 656.437 2775.37 652.727 2787.91 645.308C2800.46 637.889 2810.38 627.027 2817.69 612.719C2825.54 597.881 2829.45 579.333 2829.45 557.076C2829.45 534.819 2825.54 516.538 2817.69 502.23C2810.38 487.392 2800.71 476.263 2788.69 468.844C2776.68 461.425 2763.88 457.716 2750.29 457.716C2735.66 457.716 2722.58 461.425 2711.09 468.844C2699.59 476.263 2690.18 487.392 2682.87 502.23C2676.08 516.538 2672.67 534.819 2672.67 557.076C2672.67 579.333 2676.08 597.881 2682.87 612.719C2689.67 627.027 2698.8 637.889 2710.3 645.308C2721.8 652.727 2734.61 656.437 2748.71 656.437ZM3022.32 358.355H3126.58L3134.41 410.818C3144.35 397.04 3156.1 385.646 3169.69 376.637C3183.81 367.1 3199.21 360.741 3215.94 357.561C3233.19 354.382 3252 354.646 3272.37 358.355V468.05C3258.79 463.281 3244.16 461.955 3228.48 464.075C3212.8 465.665 3197.91 470.964 3183.81 479.973C3169.69 488.451 3158.19 501.17 3149.32 518.127C3140.96 535.085 3136.78 556.546 3136.78 582.513V755.797H3022.32V358.355Z" fill="#0577DD"/>
<path d="M81.5959 639.746C85.254 657.233 91.2637 671.806 99.6249 683.464C108.509 695.122 120.267 703.865 134.899 709.695C149.531 715.524 167.038 718.439 187.418 718.439C219.818 718.439 244.117 712.08 260.318 699.362C277.04 686.114 285.402 669.686 285.402 650.079C285.402 633.651 280.436 620.668 270.509 611.13C261.102 601.591 248.56 593.906 232.883 588.077C217.205 582.248 200.221 577.214 181.93 572.975C169.389 569.796 155.279 566.086 139.602 561.847C123.925 557.607 108.77 551.778 94.1379 544.359C80.0282 536.41 68.2703 526.341 58.8638 514.153C49.98 501.435 45.5381 484.743 45.5381 464.076C45.5381 441.819 51.5478 422.477 63.567 406.05C75.5864 389.092 92.0476 376.108 112.951 367.101C134.376 357.562 158.676 352.793 185.85 352.793C218.25 352.793 246.993 359.946 272.077 374.254C297.159 388.562 314.404 411.349 323.81 442.615L282.266 456.923C277.563 439.965 269.724 427.247 258.75 418.768C248.298 409.759 236.541 403.664 223.476 400.485C210.412 397.305 197.608 395.715 185.066 395.715C157.37 395.715 135.16 401.545 118.438 413.203C101.715 424.331 93.3541 440.495 93.3541 461.692C93.3541 473.879 96.2281 483.947 101.977 491.896C107.725 499.845 115.302 506.204 124.709 510.974C134.638 515.743 145.873 519.718 158.415 522.898C170.957 526.077 184.02 529.257 197.608 532.437C212.763 536.146 228.18 540.65 243.857 545.949C259.535 551.248 274.165 558.137 287.752 566.616C301.339 575.095 312.314 585.957 320.675 599.206C329.036 612.454 333.217 629.147 333.217 649.285C333.217 672.07 326.946 691.943 314.404 708.9C302.385 725.858 285.402 738.84 263.453 747.849C242.027 756.858 216.683 761.362 187.418 761.362C147.702 761.362 115.041 752.619 89.4347 735.131C64.3509 717.114 47.6284 690.087 39.2671 654.054L81.5959 639.746ZM432.554 358.356H474.098L477.234 430.691C487.163 407.374 502.318 388.562 522.699 374.254C543.079 359.946 569.209 352.793 601.086 352.793C630.349 352.793 656.74 360.476 680.256 375.844C703.773 391.212 721.278 414.529 732.775 445.794C743.749 413.999 761.778 390.682 786.862 375.844C811.946 360.476 840.165 352.793 871.52 352.793C900.262 352.793 925.867 359.416 948.338 372.664C970.809 385.383 988.316 404.724 1000.86 430.691C1013.4 456.657 1019.67 489.247 1019.67 528.461V755.798H974.99V533.231C974.99 488.187 965.323 454.007 945.987 430.691C926.652 406.844 899.477 394.921 864.464 394.921C828.406 394.921 799.666 407.904 778.24 433.87C757.337 459.837 746.885 497.991 746.885 548.334V755.798H701.42V533.231C701.42 488.187 692.014 454.007 673.201 430.691C654.91 406.844 628.259 394.921 593.247 394.921C557.189 394.921 528.709 407.904 507.806 433.87C487.425 459.837 477.234 497.991 477.234 548.334V755.798H432.554V358.356ZM1390.75 755.798L1387.61 671.54C1376.64 700.156 1359.39 722.413 1335.88 738.311C1312.88 753.678 1283.62 761.362 1248.08 761.362C1219.86 761.362 1195.82 757.122 1175.97 748.645C1156.11 739.636 1140.69 726.918 1129.72 710.49C1119.27 694.063 1114.04 674.455 1114.04 651.668C1114.04 618.283 1126.32 591.257 1150.88 570.59C1175.44 549.394 1212.02 536.41 1260.62 531.641L1387.61 517.333V483.947C1387.61 456.393 1378.46 434.93 1360.17 419.562C1342.41 403.664 1317.58 395.715 1285.71 395.715C1255.4 395.715 1230.05 402.87 1209.67 417.178C1189.81 431.486 1176.49 451.888 1169.7 478.384L1128.93 464.076C1138.86 428.571 1157.41 401.28 1184.59 382.203C1211.76 362.596 1245.73 352.793 1286.49 352.793C1332.48 352.793 1368.28 364.451 1393.88 387.766C1419.49 411.083 1432.29 443.145 1432.29 483.947V755.798H1390.75ZM1387.61 556.283L1259.84 571.385C1226.39 575.095 1201.57 583.574 1185.37 596.822C1169.7 609.54 1161.86 627.028 1161.86 649.285C1161.86 671.54 1169.43 689.027 1184.59 701.746C1200.27 714.464 1222.48 720.823 1251.22 720.823C1281.53 720.823 1306.61 714.73 1326.47 702.541C1346.85 689.823 1362 672.6 1371.93 650.874C1382.38 628.617 1387.61 603.711 1387.61 576.155V556.283Z" fill="black"/>
<path d="M1704.24 247.121V197.006L1636.81 234.167C1634.3 235.583 1631.64 236.291 1628.85 236.291C1626.06 236.291 1623.41 235.583 1620.89 234.167L1550.11 195.094C1548.58 194.247 1547.5 193.183 1546.86 191.91C1546.23 190.636 1545.92 189.22 1545.93 187.663C1545.93 186.107 1546.25 184.691 1546.87 183.415C1547.5 182.142 1548.58 181.08 1550.11 180.23L1620.89 141.159C1622.15 140.451 1623.44 139.919 1624.77 139.562C1626.1 139.205 1627.46 139.03 1628.85 139.035C1630.24 139.041 1631.6 139.219 1632.94 139.57C1634.27 139.921 1635.56 140.451 1636.81 141.159L1716.59 185.326C1717.99 186.035 1719.07 187.062 1719.84 188.41C1720.61 189.759 1720.99 191.208 1720.99 192.759V247.121C1720.99 249.528 1720.18 251.546 1718.57 253.176C1716.96 254.808 1714.98 255.621 1712.61 255.614C1710.25 255.609 1708.26 254.794 1706.65 253.168C1705.04 251.543 1704.24 249.528 1704.24 247.121ZM1620.89 285.132L1579.01 262.197C1576.22 260.64 1574.06 258.517 1572.52 255.828C1570.98 253.136 1570.22 250.235 1570.22 247.121V214.844L1620.89 242.661C1623.41 244.077 1626.06 244.784 1628.85 244.784C1631.64 244.784 1634.3 244.077 1636.81 242.661L1687.48 214.844V247.121C1687.48 250.235 1686.72 253.136 1685.18 255.828C1683.64 258.517 1681.48 260.64 1678.69 262.197L1636.81 285.132C1635.55 285.839 1634.26 286.37 1632.94 286.728C1631.61 287.085 1630.25 287.26 1628.85 287.255C1627.45 287.248 1626.09 287.072 1624.76 286.728C1623.44 286.383 1622.15 285.849 1620.89 285.132Z" fill="#0577DD"/>
</svg>
