<svg width="300" height="147" viewBox="0 0 300 147" fill="none" xmlns="http://www.w3.org/2000/svg">
<g filter="url(#filter0_d_880_26)">
<rect x="5.91455" y="5.91406" width="287.76" height="134.575" rx="11.8292" fill="white"/>
</g>
<g clip-path="url(#clip0_880_26)">
<path fill-rule="evenodd" clip-rule="evenodd" d="M88.3841 65.1759H74.9001V71.9295H87.3288C88.2501 71.9295 88.9201 72.1162 89.3723 72.5052C89.8246 72.8787 90.0591 73.3922 90.0591 74.0147C90.0591 74.6371 89.8414 75.1507 89.3891 75.5397C88.9368 75.9287 88.2668 76.131 87.3288 76.131H74.9001V83.9428H88.8531C89.7911 83.9428 90.4946 84.1451 90.9804 84.5497C91.4661 84.9543 91.7006 85.499 91.7006 86.1681C91.7006 86.8061 91.4661 87.3508 90.9804 87.7554C90.5114 88.16 89.7911 88.3623 88.8531 88.3623H72.5719C71.2653 88.3623 70.3273 88.0977 69.7578 87.5531C69.1883 87.024 68.9036 86.1525 68.9036 84.9543V64.3044C68.9036 63.5108 69.0376 62.8572 69.2888 62.3437C69.5401 61.8457 69.9421 61.4723 70.4948 61.2388C71.0476 61.0054 71.7344 60.8965 72.5886 60.8965H88.4008C89.3556 60.8965 90.0759 61.0988 90.5281 61.4878C90.9971 61.8768 91.2316 62.3904 91.2316 63.0284C91.2316 63.682 90.9971 64.1955 90.5281 64.6001C90.0591 64.9891 89.3388 65.1759 88.3841 65.1759Z" fill="#00539D"/>
<mask id="mask0_880_26" style="mask-type:luminance" maskUnits="userSpaceOnUse" x="93" y="67" width="23" height="22">
<path d="M115.117 67.7695H93.6931V88.8552H115.117V67.7695Z" fill="white"/>
</mask>
<g mask="url(#mask0_880_26)">
<path fill-rule="evenodd" clip-rule="evenodd" d="M114.799 82.509C114.799 83.147 114.598 83.8317 114.179 84.5475C113.761 85.2789 113.141 85.9636 112.303 86.6172C111.466 87.2707 110.41 87.7998 109.121 88.2044C107.848 88.609 106.407 88.7958 104.816 88.7958C101.416 88.7958 98.7523 87.8776 96.8428 86.0258C94.9333 84.174 93.9785 81.7153 93.9785 78.6031C93.9785 76.5023 94.414 74.6505 95.285 73.0477C96.156 71.4449 97.4291 70.1844 99.0706 69.3129C100.729 68.4415 102.705 67.9902 105 67.9902C106.424 67.9902 107.73 68.1925 108.92 68.5816C110.109 68.9706 111.114 69.4686 111.952 70.0755C112.772 70.6823 113.409 71.3359 113.844 72.0362C114.28 72.7209 114.498 73.3745 114.498 73.9658C114.498 74.5727 114.246 75.1018 113.761 75.5219C113.275 75.9576 112.672 76.1599 111.985 76.1599C111.533 76.1599 111.148 76.051 110.846 75.8332C110.544 75.6153 110.209 75.2574 109.824 74.775C109.154 73.8257 108.451 73.1099 107.714 72.6431C106.993 72.1762 106.055 71.9273 104.916 71.9273C103.292 71.9273 101.968 72.5186 100.98 73.7012C99.9751 74.8839 99.4893 76.5023 99.4893 78.5564C99.4893 79.5212 99.6233 80.4082 99.8746 81.2018C100.126 82.011 100.494 82.6957 100.98 83.2559C101.466 83.8317 102.052 84.2518 102.739 84.5475C103.426 84.8432 104.179 84.9832 105 84.9832C106.106 84.9832 107.044 84.7498 107.831 84.2674C108.618 83.8006 109.322 83.0692 109.925 82.0888C110.26 81.513 110.628 81.0618 111.013 80.735C111.399 80.4082 111.885 80.237 112.454 80.237C113.124 80.237 113.677 80.486 114.129 80.9528C114.565 81.4664 114.799 81.9799 114.799 82.509Z" fill="#00539D"/>
</g>
<mask id="mask1_880_26" style="mask-type:luminance" maskUnits="userSpaceOnUse" x="116" y="67" width="24" height="22">
<path d="M139.525 67.7695H116.979V88.8552H139.525V67.7695Z" fill="white"/>
</mask>
<g mask="url(#mask1_880_26)">
<path fill-rule="evenodd" clip-rule="evenodd" d="M133.644 78.4477C133.644 76.3624 133.142 74.7285 132.154 73.5769C131.165 72.4254 129.842 71.8341 128.167 71.8341C127.095 71.8341 126.14 72.0986 125.32 72.6121C124.499 73.1257 123.862 73.8882 123.427 74.9152C122.991 75.9267 122.774 77.1094 122.774 78.4632C122.774 79.8015 122.991 80.9686 123.427 81.9645C123.862 82.9604 124.499 83.7385 125.303 84.2676C126.107 84.7967 127.078 85.0612 128.167 85.0612C129.842 85.0612 131.165 84.4699 132.154 83.3028C133.159 82.1201 133.644 80.5017 133.644 78.4477ZM139.172 78.4477C139.172 79.9727 138.921 81.3732 138.402 82.6648C137.899 83.9564 137.145 85.0612 136.174 85.9793C135.202 86.8975 134.046 87.6133 132.706 88.0957C131.366 88.5936 129.859 88.8426 128.167 88.8426C126.492 88.8426 125.001 88.5936 123.661 88.0957C122.338 87.5977 121.182 86.8819 120.194 85.9482C119.223 85.0145 118.486 83.9097 117.983 82.6492C117.481 81.3887 117.229 79.9727 117.229 78.4477C117.229 76.9071 117.481 75.4754 118 74.1838C118.519 72.8922 119.239 71.803 120.194 70.8848C121.149 69.9823 122.305 69.2665 123.661 68.7841C125.018 68.2861 126.526 68.0371 128.167 68.0371C129.842 68.0371 131.35 68.2861 132.706 68.7841C134.063 69.282 135.236 69.9978 136.191 70.916C137.162 71.8496 137.899 72.9389 138.402 74.215C138.921 75.5066 139.172 76.9071 139.172 78.4477Z" fill="#00539D"/>
</g>
<mask id="mask2_880_26" style="mask-type:luminance" maskUnits="userSpaceOnUse" x="141" y="60" width="28" height="29">
<path d="M168.1 60.4414H141.417V88.8564H168.1V60.4414Z" fill="white"/>
</mask>
<g mask="url(#mask2_880_26)">
<path fill-rule="evenodd" clip-rule="evenodd" d="M168.068 79.7141C168.068 80.5855 167.833 81.5348 167.381 82.5463C166.912 83.5733 166.192 84.5692 165.187 85.5496C164.182 86.53 162.925 87.3236 161.368 87.9305C159.827 88.5374 158.018 88.8486 155.957 88.8486C154.4 88.8486 152.976 88.7086 151.703 88.4285C150.413 88.1639 149.257 87.7282 148.219 87.1524C147.18 86.5767 146.225 85.8141 145.354 84.8493C144.567 83.9935 143.914 83.0287 143.361 81.9549C142.808 80.8812 142.39 79.7452 142.122 78.5314C141.837 77.3177 141.703 76.0261 141.703 74.6722C141.703 72.4625 142.055 70.4862 142.741 68.7278C143.428 66.9849 144.433 65.4755 145.723 64.2461C147.013 63.0012 148.52 62.052 150.262 61.414C152.004 60.7604 153.847 60.4336 155.807 60.4336C158.202 60.4336 160.329 60.8849 162.205 61.7719C164.081 62.6589 165.505 63.7637 166.493 65.0553C167.498 66.3625 167.984 67.5918 167.984 68.7589C167.984 69.3969 167.733 69.9571 167.264 70.4395C166.778 70.9219 166.192 71.1709 165.505 71.1709C164.734 71.1709 164.165 70.9997 163.78 70.6574C163.394 70.315 162.976 69.7393 162.49 68.9145C161.703 67.5451 160.798 66.5336 159.743 65.8645C158.688 65.1954 157.381 64.853 155.84 64.853C153.378 64.853 151.418 65.7245 149.961 67.4518C148.503 69.1946 147.766 71.6533 147.766 74.859C147.766 76.9909 148.085 78.7649 148.738 80.1965C149.391 81.6126 150.296 82.6708 151.485 83.371C152.674 84.0713 154.048 84.4292 155.639 84.4292C157.364 84.4292 158.822 84.0246 160.011 83.231C161.2 82.4373 162.105 81.2702 162.708 79.7452C162.959 79.0138 163.277 78.4225 163.662 77.9712C164.048 77.5044 164.634 77.2865 165.471 77.2865C166.175 77.2865 166.795 77.5044 167.314 77.9712C167.8 78.4381 168.068 79.0294 168.068 79.7141Z" fill="#E20A1C"/>
</g>
<mask id="mask3_880_26" style="mask-type:luminance" maskUnits="userSpaceOnUse" x="170" y="67" width="23" height="22">
<path d="M192.153 67.7695H170.729V88.8552H192.153V67.7695Z" fill="white"/>
</mask>
<g mask="url(#mask3_880_26)">
<path fill-rule="evenodd" clip-rule="evenodd" d="M185.586 78.5604C184.782 78.8249 183.609 79.1361 182.068 79.4318C180.527 79.743 179.455 79.9609 178.869 80.1009C178.283 80.241 177.713 80.5367 177.177 80.9412C176.641 81.3614 176.373 81.9527 176.373 82.6997C176.373 83.4777 176.691 84.1313 177.328 84.676C177.948 85.2206 178.785 85.4851 179.807 85.4851C180.896 85.4851 181.901 85.2517 182.822 84.816C183.743 84.3803 184.43 83.8045 184.849 83.1043C185.335 82.3262 185.586 81.0502 185.586 79.2917V78.5604ZM185.954 85.9676C184.614 86.9324 183.325 87.6482 182.085 88.1306C180.845 88.613 179.455 88.862 177.897 88.862C176.49 88.862 175.251 88.5974 174.179 88.0839C173.107 87.5548 172.286 86.8546 171.7 85.9676C171.13 85.0806 170.829 84.1158 170.829 83.0887C170.829 81.6882 171.298 80.49 172.269 79.5096C173.224 78.5292 174.531 77.8601 176.206 77.5178C176.557 77.4399 177.412 77.2688 178.802 77.0042C180.192 76.7397 181.382 76.5063 182.37 76.2884C183.358 76.0705 184.43 75.806 185.586 75.4948C185.519 74.1409 185.234 73.1606 184.715 72.5226C184.196 71.8845 183.124 71.5733 181.499 71.5733C180.092 71.5733 179.053 71.7445 178.35 72.118C177.646 72.4759 177.026 73.0205 176.541 73.7519C176.038 74.4833 175.67 74.9657 175.469 75.1835C175.268 75.417 174.815 75.5259 174.129 75.5259C173.509 75.5259 172.973 75.3392 172.521 74.9812C172.068 74.6078 171.851 74.1409 171.851 73.5652C171.851 72.6626 172.202 71.7912 172.872 70.9353C173.559 70.0794 174.631 69.3947 176.088 68.8345C177.529 68.2899 179.355 68.0098 181.516 68.0098C183.928 68.0098 185.837 68.2743 187.227 68.8034C188.618 69.3325 189.589 70.1728 190.159 71.3243C190.728 72.4759 191.013 74.0009 191.013 75.8994C191.013 77.0976 190.996 78.1246 190.996 78.9494C190.996 79.7897 190.979 80.7234 190.963 81.7349C190.963 82.6997 191.147 83.6956 191.482 84.7382C191.834 85.7808 192.001 86.45 192.001 86.7456C192.001 87.2747 191.733 87.7416 191.197 88.1773C190.661 88.613 190.075 88.8308 189.388 88.8308C188.819 88.8308 188.266 88.5819 187.713 88.0839C187.16 87.6171 186.574 86.9012 185.954 85.9676Z" fill="#E20A1C"/>
</g>
<mask id="mask4_880_26" style="mask-type:luminance" maskUnits="userSpaceOnUse" x="194" y="67" width="20" height="22">
<path d="M213.558 67.7695H194.396V88.8552H213.558V67.7695Z" fill="white"/>
</mask>
<g mask="url(#mask4_880_26)">
<path fill-rule="evenodd" clip-rule="evenodd" d="M213.291 82.1511C213.291 83.5516 212.922 84.7654 212.185 85.7768C211.448 86.7728 210.359 87.5508 208.902 88.0644C207.462 88.5779 205.703 88.8424 203.626 88.8424C201.649 88.8424 199.957 88.5623 198.55 88.0021C197.143 87.4419 196.088 86.7416 195.418 85.8858C194.748 85.0455 194.413 84.2052 194.413 83.3493C194.413 82.7891 194.631 82.3067 195.066 81.9021C195.502 81.4975 196.038 81.2952 196.691 81.2952C197.277 81.2952 197.713 81.4197 198.031 81.6842C198.333 81.9488 198.634 82.3222 198.919 82.7891C199.472 83.7072 200.158 84.3763 200.946 84.8276C201.733 85.2789 202.805 85.4967 204.162 85.4967C205.267 85.4967 206.172 85.2633 206.875 84.812C207.579 84.3608 207.931 83.8317 207.931 83.2403C207.931 82.3378 207.562 81.6842 206.842 81.2796C206.105 80.875 204.899 80.4704 203.224 80.097C201.331 79.6612 199.79 79.21 198.601 78.712C197.411 78.2296 196.457 77.6071 195.753 76.8135C195.033 76.0199 194.681 75.0551 194.681 73.9035C194.681 72.8765 194.999 71.9117 195.669 70.9936C196.323 70.0755 197.294 69.3441 198.584 68.7994C199.874 68.2548 201.415 67.9902 203.24 67.9902C204.664 67.9902 205.954 68.1303 207.093 68.4104C208.215 68.6905 209.17 69.0484 209.924 69.5152C210.678 69.9821 211.264 70.4956 211.649 71.0558C212.051 71.616 212.252 72.1762 212.252 72.7053C212.252 73.2966 212.034 73.779 211.616 74.1525C211.197 74.526 210.594 74.7127 209.807 74.7127C209.237 74.7127 208.751 74.5571 208.366 74.2615C207.964 73.9658 207.512 73.5145 207.009 72.9076C206.591 72.4097 206.105 72.0051 205.535 71.7094C204.966 71.4137 204.195 71.2581 203.24 71.2581C202.252 71.2581 201.415 71.4604 200.761 71.8494C200.108 72.2385 199.773 72.7364 199.773 73.3278C199.773 73.8569 200.008 74.3081 200.493 74.6505C200.979 74.9928 201.632 75.2885 202.453 75.5064C203.274 75.7398 204.413 76.0043 205.853 76.3311C207.562 76.7201 208.952 77.1714 210.041 77.7161C211.13 78.2607 211.951 78.8832 212.503 79.6146C213.006 80.3771 213.291 81.2174 213.291 82.1511Z" fill="#E20A1C"/>
</g>
<mask id="mask5_880_26" style="mask-type:luminance" maskUnits="userSpaceOnUse" x="216" y="60" width="21" height="29">
<path d="M236.407 60.4414H216.558V88.8564H236.407V60.4414Z" fill="white"/>
</mask>
<g mask="url(#mask5_880_26)">
<path fill-rule="evenodd" clip-rule="evenodd" d="M222.304 63.5459V71.1398C223.007 70.3929 223.677 69.8015 224.347 69.3502C225.017 68.9145 225.754 68.5877 226.558 68.3699C227.362 68.152 228.233 68.0431 229.154 68.0431C230.561 68.0431 231.801 68.3232 232.873 68.8678C233.962 69.4125 234.799 70.2217 235.419 71.2643C235.804 71.8712 236.072 72.5559 236.206 73.3184C236.34 74.0809 236.407 74.9523 236.407 75.9327V85.7363C236.407 86.7634 236.156 87.5259 235.653 88.055C235.151 88.5841 234.481 88.8486 233.643 88.8486C231.834 88.8486 230.913 87.8216 230.913 85.7363V77.0842C230.913 75.4503 230.662 74.1898 230.126 73.3184C229.607 72.4469 228.602 71.9957 227.144 71.9957C226.156 71.9957 225.268 72.2602 224.498 72.7737C223.711 73.2873 223.124 74.0031 222.739 74.8901C222.438 75.6526 222.287 77.0064 222.287 78.9516V85.7208C222.287 86.7323 222.036 87.4948 221.55 88.0394C221.064 88.5685 220.377 88.833 219.506 88.833C217.697 88.833 216.793 87.806 216.793 85.7208V63.5459C216.793 62.5033 217.027 61.7252 217.513 61.2117C217.982 60.6981 218.652 60.4336 219.523 60.4336C220.394 60.4336 221.081 60.6981 221.567 61.2272C222.052 61.7563 222.304 62.5188 222.304 63.5459Z" fill="#E20A1C"/>
</g>
</g>
<defs>
<filter id="filter0_d_880_26" x="-5.14984e-05" y="-0.00053978" width="299.589" height="146.403" filterUnits="userSpaceOnUse" color-interpolation-filters="sRGB">
<feFlood flood-opacity="0" result="BackgroundImageFix"/>
<feColorMatrix in="SourceAlpha" type="matrix" values="0 0 0 0 0 0 0 0 0 0 0 0 0 0 0 0 0 0 127 0" result="hardAlpha"/>
<feOffset/>
<feGaussianBlur stdDeviation="2.9573"/>
<feComposite in2="hardAlpha" operator="out"/>
<feColorMatrix type="matrix" values="0 0 0 0 0 0 0 0 0 0 0 0 0 0 0 0 0 0 0.02 0"/>
<feBlend mode="normal" in2="BackgroundImageFix" result="effect1_dropShadow_880_26"/>
<feBlend mode="normal" in="SourceGraphic" in2="effect1_dropShadow_880_26" result="shape"/>
</filter>
<clipPath id="clip0_880_26">
<rect width="167.502" height="28.6329" fill="white" transform="translate(68.9045 60.332)"/>
</clipPath>
</defs>
</svg>
