<svg width="301" height="147" viewBox="0 0 301 147" fill="none" xmlns="http://www.w3.org/2000/svg">
<g filter="url(#filter0_d_880_12)">
<rect x="5.75" y="5.75" width="288.936" height="135.124" rx="11.4999" fill="white"/>
<rect x="6.46875" y="6.46875" width="287.499" height="133.687" rx="10.7812" stroke="#EDEDED" stroke-width="1.43749"/>
</g>
<path d="M119.778 110.507V105.546C119.778 103.649 118.604 102.406 116.588 102.406C115.581 102.406 114.485 102.734 113.732 103.813C113.145 102.907 112.304 102.406 111.042 102.406C110.2 102.406 109.359 102.657 108.694 103.562V102.57H106.933V110.507H108.694V106.124C108.694 104.718 109.447 104.053 110.621 104.053C111.795 104.053 112.382 104.795 112.382 106.124V110.507H114.143V106.124C114.143 104.718 114.984 104.053 116.07 104.053C117.244 104.053 117.831 104.795 117.831 106.124V110.507H119.778ZM145.898 102.57H143.041V100.171H141.28V102.57H139.686V104.14H141.28V107.781C141.28 109.602 142.033 110.671 144.049 110.671C144.802 110.671 145.643 110.421 146.23 110.093L145.722 108.6C145.213 108.928 144.626 109.014 144.205 109.014C143.364 109.014 143.031 108.513 143.031 107.695V104.14H145.888V102.57H145.898ZM160.846 102.397C159.838 102.397 159.163 102.897 158.742 103.552V102.56H156.982V110.498H158.742V106.028C158.742 104.708 159.329 103.957 160.425 103.957C160.758 103.957 161.178 104.044 161.521 104.121L162.029 102.464C161.677 102.397 161.178 102.397 160.846 102.397ZM138.257 103.225C137.416 102.647 136.242 102.397 134.98 102.397C132.965 102.397 131.625 103.389 131.625 104.959C131.625 106.279 132.632 107.03 134.393 107.271L135.234 107.357C136.154 107.521 136.663 107.772 136.663 108.186C136.663 108.764 135.988 109.178 134.814 109.178C133.64 109.178 132.71 108.764 132.124 108.35L131.282 109.669C132.202 110.334 133.464 110.661 134.726 110.661C137.074 110.661 138.424 109.583 138.424 108.099C138.424 106.693 137.328 105.951 135.655 105.701L134.814 105.614C134.061 105.527 133.474 105.363 133.474 104.872C133.474 104.294 134.061 103.967 134.99 103.967C135.998 103.967 137.005 104.381 137.514 104.631L138.257 103.225ZM185.107 102.397C184.099 102.397 183.424 102.897 183.004 103.552V102.56H181.243V110.498H183.004V106.028C183.004 104.708 183.591 103.957 184.686 103.957C185.019 103.957 185.44 104.044 185.782 104.121L186.291 102.483C185.948 102.397 185.449 102.397 185.107 102.397ZM162.607 106.539C162.607 108.937 164.289 110.671 166.892 110.671C168.065 110.671 168.907 110.421 169.748 109.766L168.907 108.359C168.232 108.86 167.567 109.101 166.803 109.101C165.375 109.101 164.368 108.109 164.368 106.539C164.368 104.968 165.375 104.053 166.803 103.976C167.557 103.976 168.232 104.227 168.907 104.718L169.748 103.312C168.907 102.647 168.065 102.406 166.892 102.406C164.289 102.397 162.607 104.14 162.607 106.539ZM178.895 106.539V102.57H177.134V103.562C176.547 102.82 175.706 102.406 174.61 102.406C172.341 102.406 170.58 104.14 170.58 106.539C170.58 108.937 172.341 110.671 174.61 110.671C175.784 110.671 176.625 110.257 177.134 109.515V110.507H178.895V106.539ZM172.429 106.539C172.429 105.132 173.348 103.976 174.864 103.976C176.293 103.976 177.3 105.055 177.3 106.539C177.3 107.945 176.293 109.101 174.864 109.101C173.358 109.014 172.429 107.935 172.429 106.539ZM151.356 102.397C149.009 102.397 147.326 104.053 147.326 106.529C147.326 109.005 149.009 110.661 151.445 110.661C152.618 110.661 153.792 110.334 154.722 109.583L153.88 108.34C153.205 108.841 152.364 109.168 151.533 109.168C150.437 109.168 149.351 108.667 149.097 107.271H155.054V106.606C155.133 104.053 153.616 102.397 151.356 102.397ZM151.356 103.89C152.452 103.89 153.205 104.554 153.372 105.787H149.175C149.341 104.718 150.094 103.89 151.356 103.89ZM195.105 106.539V99.4297H193.344V103.562C192.757 102.82 191.916 102.406 190.82 102.406C188.551 102.406 186.79 104.14 186.79 106.539C186.79 108.937 188.551 110.671 190.82 110.671C191.994 110.671 192.835 110.257 193.344 109.515V110.507H195.105V106.539ZM188.639 106.539C188.639 105.132 189.558 103.976 191.075 103.976C192.503 103.976 193.51 105.055 193.51 106.539C193.51 107.945 192.503 109.101 191.075 109.101C189.558 109.014 188.639 107.935 188.639 106.539ZM129.688 106.539V102.57H127.927V103.562C127.34 102.82 126.498 102.406 125.403 102.406C123.133 102.406 121.372 104.14 121.372 106.539C121.372 108.937 123.133 110.671 125.403 110.671C126.577 110.671 127.418 110.257 127.927 109.515V110.507H129.688V106.539ZM123.143 106.539C123.143 105.132 124.063 103.976 125.579 103.976C127.007 103.976 128.015 105.055 128.015 106.539C128.015 107.945 127.007 109.101 125.579 109.101C124.063 109.014 123.143 107.935 123.143 106.539Z" fill="black"/>
<path d="M164.119 42.2949H137.666V89.0905H164.119V42.2949Z" fill="#FF5A00"/>
<path d="M139.43 65.6967C139.43 56.1892 143.969 47.751 150.934 42.2988C145.808 38.3302 139.342 35.9316 132.288 35.9316C115.579 35.9316 102.059 49.244 102.059 65.6967C102.059 82.1493 115.579 95.4617 132.288 95.4617C139.342 95.4617 145.808 93.0631 150.934 89.0945C143.959 83.7194 139.43 75.2041 139.43 65.6967Z" fill="#EB001B"/>
<path d="M199.808 65.6967C199.808 82.1493 186.289 95.4617 169.58 95.4617C162.526 95.4617 156.06 93.0631 150.934 89.0945C157.987 83.6327 162.438 75.2041 162.438 65.6967C162.438 56.1892 157.899 47.751 150.934 42.2988C156.05 38.3302 162.516 35.9316 169.57 35.9316C186.289 35.9316 199.808 49.3307 199.808 65.6967Z" fill="#F79E1B"/>
<defs>
<filter id="filter0_d_880_12" x="2.76566e-05" y="2.76566e-05" width="300.436" height="146.625" filterUnits="userSpaceOnUse" color-interpolation-filters="sRGB">
<feFlood flood-opacity="0" result="BackgroundImageFix"/>
<feColorMatrix in="SourceAlpha" type="matrix" values="0 0 0 0 0 0 0 0 0 0 0 0 0 0 0 0 0 0 127 0" result="hardAlpha"/>
<feOffset/>
<feGaussianBlur stdDeviation="2.87499"/>
<feComposite in2="hardAlpha" operator="out"/>
<feColorMatrix type="matrix" values="0 0 0 0 0 0 0 0 0 0 0 0 0 0 0 0 0 0 0.02 0"/>
<feBlend mode="normal" in2="BackgroundImageFix" result="effect1_dropShadow_880_12"/>
<feBlend mode="normal" in="SourceGraphic" in2="effect1_dropShadow_880_12" result="shape"/>
</filter>
</defs>
</svg>
