<svg width="300" height="147" viewBox="0 0 300 147" fill="none" xmlns="http://www.w3.org/2000/svg">
<g filter="url(#filter0_d_880_3)">
<rect x="5.72656" y="5.72656" width="287.76" height="134.575" rx="11.4531" fill="white"/>
</g>
<g clip-path="url(#clip0_880_3)">
<path d="M142.306 93.8981H132.564L138.657 55.0938H148.399L142.306 93.8981Z" fill="#00579F"/>
<path d="M177.621 56.0407C175.699 55.2556 172.652 54.3887 168.883 54.3887C159.263 54.3887 152.488 59.6724 152.447 67.2265C152.367 72.7999 157.297 75.8955 160.985 77.7539C164.754 79.6529 166.035 80.8923 166.035 82.585C165.996 85.1846 162.989 86.3829 160.184 86.3829C156.295 86.3829 154.211 85.7651 151.044 84.3188L149.761 83.6988L148.398 92.4095C150.683 93.4816 154.893 94.433 159.263 94.4747C169.485 94.4747 176.139 89.2727 176.218 81.2226C176.257 76.8052 173.654 73.4205 168.041 70.6546C164.634 68.8791 162.547 67.6819 162.547 65.8653C162.587 64.2138 164.312 62.5222 168.158 62.5222C171.325 62.4393 173.652 63.2234 175.415 64.008L176.296 64.4201L177.621 56.0407Z" fill="#00579F"/>
<path d="M190.569 80.1511C191.371 77.9218 194.458 69.2939 194.458 69.2939C194.418 69.3768 195.259 67.0235 195.74 65.5789L196.421 68.9225C196.421 68.9225 198.266 78.211 198.666 80.1511C197.144 80.1511 192.493 80.1511 190.569 80.1511ZM202.594 55.0938H195.059C192.735 55.0938 190.97 55.795 189.967 58.3134L175.497 93.8975H185.719C185.719 93.8975 187.401 89.1082 187.763 88.0767C188.884 88.0767 198.828 88.0767 200.271 88.0767C200.55 89.439 201.433 93.8975 201.433 93.8975H210.453L202.594 55.0938Z" fill="#00579F"/>
<path d="M124.427 55.0938L114.887 81.5546L113.845 76.188C112.081 69.9957 106.549 63.2679 100.376 59.9226L109.115 93.8569H119.416L134.729 55.0938H124.427Z" fill="#00579F"/>
<path d="M106.029 55.0938H90.3552L90.1948 55.8778C102.421 59.098 110.518 66.86 113.845 76.1897L110.438 58.3556C109.877 55.8773 108.153 55.1755 106.029 55.0938Z" fill="#FAA61A"/>
</g>
<defs>
<filter id="filter0_d_880_3" x="-1.09673e-05" y="-1.09673e-05" width="299.213" height="146.027" filterUnits="userSpaceOnUse" color-interpolation-filters="sRGB">
<feFlood flood-opacity="0" result="BackgroundImageFix"/>
<feColorMatrix in="SourceAlpha" type="matrix" values="0 0 0 0 0 0 0 0 0 0 0 0 0 0 0 0 0 0 127 0" result="hardAlpha"/>
<feOffset/>
<feGaussianBlur stdDeviation="2.86329"/>
<feComposite in2="hardAlpha" operator="out"/>
<feColorMatrix type="matrix" values="0 0 0 0 0 0 0 0 0 0 0 0 0 0 0 0 0 0 0.02 0"/>
<feBlend mode="normal" in2="BackgroundImageFix" result="effect1_dropShadow_880_3"/>
<feBlend mode="normal" in="SourceGraphic" in2="effect1_dropShadow_880_3" result="shape"/>
</filter>
<clipPath id="clip0_880_3">
<rect width="120.258" height="40.086" fill="white" transform="translate(90.1943 54.3984)"/>
</clipPath>
</defs>
</svg>
