<svg width="300" height="147" viewBox="0 0 300 147" fill="none" xmlns="http://www.w3.org/2000/svg">
<g filter="url(#filter0_d_880_23)">
<rect x="5.72656" y="5.72656" width="287.76" height="134.575" rx="11.4531" fill="#FFEC00"/>
<rect x="6.44238" y="6.44238" width="286.329" height="133.143" rx="10.7373" stroke="#EDEDED" stroke-width="1.43164"/>
</g>
<path fill-rule="evenodd" clip-rule="evenodd" d="M87.6789 50.9028L72.9549 64.9125C72.7253 65.1314 71.584 66.3782 71.584 68.1171C71.584 69.4499 72.6669 70.5402 73.9906 70.5402H93.371C94.6948 70.5402 95.7777 69.4499 95.7777 68.1171C95.7777 66.7843 94.6948 65.694 93.371 65.694H79.6827L94.4029 51.6881C94.4092 51.6856 95.7777 50.3861 95.7777 48.4797C95.7777 47.1469 94.6948 46.0566 93.371 46.0566H73.9906C72.6669 46.0566 71.584 47.147 71.584 48.4798C71.584 49.8126 72.6669 50.9028 73.9906 50.9028H87.6789ZM224.251 96.4792V76.9669C224.251 75.6342 225.334 74.5439 226.658 74.5439C227.982 74.5439 229.065 75.6342 229.065 76.9669V96.4792C229.065 97.812 227.982 98.9022 226.658 98.9022C225.334 98.9022 224.251 97.812 224.251 96.4792ZM205.331 96.6034V76.8427C205.331 75.5783 206.358 74.5439 207.614 74.5439C208.87 74.5439 209.898 75.5783 209.898 76.8427V82.9782C209.898 83.7746 210.543 84.4242 211.334 84.4242H220.575C221.831 84.4242 222.858 85.4586 222.858 86.7231C222.858 87.9876 221.831 89.0219 220.575 89.0219H211.334C210.543 89.0219 209.898 89.6716 209.898 90.4679V96.6034C209.898 97.8678 208.87 98.9022 207.614 98.9022C206.358 98.9022 205.331 97.8678 205.331 96.6034ZM136.812 61.4499L132.604 72.0423L136.812 82.6348L141.02 72.0423L136.812 61.4499ZM121.755 72.0423L117.547 61.4499L113.338 72.0423L117.547 82.6348L121.755 72.0423ZM193.089 74.5439H200.803C202.074 74.5439 203.114 75.5911 203.114 76.8713C203.114 78.1513 202.074 79.1985 200.803 79.1985H193.741L190.827 79.1989C186.943 79.1989 183.766 82.3981 183.766 86.3082V87.1058C183.766 91.0159 186.943 94.2151 190.827 94.2151H193.741L200.803 94.2155C202.074 94.2155 203.114 95.2626 203.114 96.5428C203.114 97.8229 202.074 98.87 200.803 98.87C197.351 98.87 193.899 98.87 190.447 98.87C184.23 98.87 179.142 93.7483 179.142 87.4883V85.9256C179.142 79.6657 184.23 74.5439 190.447 74.5439H193.089ZM159.206 74.5439H176.704C178.028 74.5439 179.111 75.6342 179.111 76.967C179.111 78.2998 178.028 79.3901 176.704 79.3901H170.902C170.111 79.3901 169.466 80.0397 169.466 80.8361V96.4792C169.466 97.812 168.383 98.9022 167.059 98.9022C165.736 98.9022 164.653 97.812 164.653 96.4792V80.8361C164.653 80.0397 164.007 79.3901 163.216 79.3901H159.206C157.882 79.3901 156.799 78.2998 156.799 76.9669C156.799 75.6342 157.882 74.5439 159.206 74.5439ZM150.117 96.4792V76.9669C150.117 75.6342 151.2 74.5439 152.524 74.5439C153.848 74.5439 154.931 75.6342 154.931 76.9669V96.4792C154.931 97.812 153.848 98.9022 152.524 98.9022C151.2 98.9022 150.117 97.812 150.117 96.4792ZM109.732 74.5229H106.228C105.767 74.5229 105.541 74.9025 105.725 75.3664L114.13 96.5219C114.698 97.9507 116.144 98.8812 117.664 98.8812C119.025 98.8812 120.486 97.8459 121.012 96.5219L126.989 81.478L132.966 96.5219C133.534 97.9507 134.981 98.8812 136.5 98.8812C137.861 98.8812 139.323 97.8459 139.849 96.5219L148.254 75.3664C148.438 74.9025 148.212 74.5229 147.751 74.5229H144.247C143.918 74.5229 143.541 74.7941 143.409 75.1255L136.407 92.7495L129.405 75.1255C129.107 74.3732 128.293 74.5229 127.577 74.5229H125.411C125.082 74.5229 124.705 74.7941 124.573 75.1255L117.571 92.7495L110.569 75.1255C110.438 74.7941 110.061 74.5229 109.732 74.5229ZM96.2923 94.1813L81.5683 80.1716C81.3651 79.9779 80.1974 78.7278 80.1974 76.9669C80.1974 75.6342 81.2804 74.5439 82.6041 74.5439H101.984C103.308 74.5439 104.391 75.6342 104.391 76.967C104.391 78.2998 103.308 79.3901 101.984 79.3901H88.2961L103.04 93.4193C103.222 93.5952 104.391 94.8444 104.391 96.6044C104.391 97.9371 103.308 99.0275 101.984 99.0275H82.6041C81.2804 99.0275 80.1974 97.9372 80.1974 96.6043C80.1974 95.2715 81.2804 94.1813 82.6041 94.1813H96.2923ZM109.732 70.4949H106.228C105.767 70.4949 105.541 70.1153 105.725 69.6514L114.13 48.496C114.698 47.0672 116.144 46.1365 117.664 46.1365C119.025 46.1365 120.486 47.1719 121.012 48.496L126.989 63.5398L132.966 48.496C133.534 47.0672 134.981 46.1365 136.5 46.1365C137.861 46.1365 139.323 47.1719 139.849 48.496L148.254 69.6514C148.438 70.1153 148.212 70.4949 147.751 70.4949H144.247C143.918 70.4949 143.541 70.2238 143.409 69.8924L136.407 52.2683L129.405 69.8924C129.107 70.6446 128.293 70.4949 127.577 70.4949H125.411C125.082 70.4949 124.705 70.2238 124.573 69.8924L117.571 52.2683L110.569 69.8924C110.438 70.2238 110.061 70.4949 109.732 70.4949ZM98.6833 68.1173V48.605C98.6833 47.2723 99.7662 46.182 101.09 46.182C102.414 46.182 103.497 47.2723 103.497 48.605V68.1173C103.497 69.45 102.414 70.5403 101.09 70.5403C99.7662 70.5403 98.6833 69.45 98.6833 68.1173Z" fill="#1B1918"/>
<defs>
<filter id="filter0_d_880_23" x="-1.09673e-05" y="-1.09673e-05" width="299.213" height="146.027" filterUnits="userSpaceOnUse" color-interpolation-filters="sRGB">
<feFlood flood-opacity="0" result="BackgroundImageFix"/>
<feColorMatrix in="SourceAlpha" type="matrix" values="0 0 0 0 0 0 0 0 0 0 0 0 0 0 0 0 0 0 127 0" result="hardAlpha"/>
<feOffset/>
<feGaussianBlur stdDeviation="2.86329"/>
<feComposite in2="hardAlpha" operator="out"/>
<feColorMatrix type="matrix" values="0 0 0 0 0 0 0 0 0 0 0 0 0 0 0 0 0 0 0.02 0"/>
<feBlend mode="normal" in2="BackgroundImageFix" result="effect1_dropShadow_880_23"/>
<feBlend mode="normal" in="SourceGraphic" in2="effect1_dropShadow_880_23" result="shape"/>
</filter>
</defs>
</svg>
