<svg xmlns="http://www.w3.org/2000/svg" version="1.1" xmlns:xlink="http://www.w3.org/1999/xlink" width="1000" height="1000"><style>
    #light-icon {
      display: inline;
    }
    #dark-icon {
      display: none;
    }

    @media (prefers-color-scheme: dark) {
      #light-icon {
        display: none;
      }
      #dark-icon {
        display: inline;
      }
    }
  </style><g id="light-icon"><svg xmlns="http://www.w3.org/2000/svg" version="1.1" xmlns:xlink="http://www.w3.org/1999/xlink" width="1000" height="1000"><g><g transform="matrix(0.6325110689437066,0,0,0.6325110689437066,-5.684341886080802e-14,120.80961416824789)"><svg xmlns="http://www.w3.org/2000/svg" version="1.1" xmlns:xlink="http://www.w3.org/1999/xlink" width="1581" height="1199"><svg width="1581" height="1199" viewBox="0 0 1581 1199" fill="none" xmlns="http://www.w3.org/2000/svg">
<path d="M772.005 1046.01C772.764 1070.59 766.156 1094.42 753.016 1115.32C739.877 1135.54 723.091 1153.59 702.66 1167.34V1168.1C686.634 1178.92 668.329 1186.89 648.657 1191.17C629.669 1195.54 609.997 1198.39 590.249 1198.39C561.083 1198.39 531.841 1192.6 504.878 1181.03C477.839 1168.77 453.078 1152.83 431.887 1132.61L464.015 1081.34C482.244 1096.53 501.992 1108.78 523.107 1118.93C544.298 1129.08 566.932 1134.79 591.009 1134.79C603.389 1134.79 615.845 1133.36 627.466 1129.76C639.163 1126.9 649.341 1121.79 659.594 1115.32C669.088 1108.86 677.139 1100.14 682.912 1090.74C688.76 1079.91 692.406 1067.66 691.646 1055.33C692.406 1038.72 685.798 1022.1 673.418 1010.53C659.518 998.948 644.252 990.303 627.466 983.762C609.237 976.545 589.49 970.005 568.375 963.54C547.943 957.751 527.512 949.106 509.283 938.957C491.055 928.808 475.712 915.126 463.332 898.512C450.951 881.898 445.103 859.495 445.103 831.304C445.103 787.927 458.243 754.699 483.763 731.619C510.043 708.54 543.614 696.963 586.679 696.963H733.345L747.244 803.864L740.712 807.473C727.572 788.002 708.584 772.064 687.469 762.667C665.595 753.27 642.201 748.91 618.883 748.91C607.187 748.91 595.566 750.338 584.553 752.519C573.615 754.699 563.362 758.984 554.627 764.096C545.893 769.208 537.842 777.101 532.753 785.747C526.904 795.895 524.018 808.149 524.702 819.727C523.942 834.912 530.55 849.346 542.93 857.991C556.83 868.14 572.856 876.034 588.882 881.823C607.111 888.288 627.542 894.828 648.733 901.293C669.924 907.082 689.596 916.479 708.584 928.056C726.813 939.633 742.915 954.819 754.535 972.862C766.232 990.904 772.081 1015.49 772.081 1045.86L772.005 1046.01Z" fill="#F3764A"></path>
<path d="M1148.44 833.635C1148.44 851.677 1145.56 870.472 1138.95 887.837C1132.42 903.7 1122.92 918.209 1111.23 930.463C1098.85 942.716 1084.19 952.114 1068.16 958.654C1050.62 965.871 1032.39 968.803 1013.4 968.803H917.09V1192.75H895.899C861.569 1192.75 844.783 1175.39 844.783 1140.73V757.857C845.543 745.603 841.897 733.274 835.289 723.2C827.238 713.052 816.301 706.586 803.92 704.406V696.438H1004.66C1023.65 696.438 1042.64 700.046 1060.11 706.586C1076.9 713.052 1092.92 722.449 1106.06 734.778C1119.2 747.031 1130.14 761.541 1136.75 778.155C1144.8 795.52 1148.44 814.239 1148.44 833.785V833.635ZM1076.97 831.455C1076.97 821.306 1074.77 810.481 1070.44 801.084C1066.03 791.686 1060.19 783.041 1052.89 775.824C1045.6 768.607 1036.87 762.819 1027.37 758.458C1017.88 754.098 1006.94 751.993 996.689 751.993H917.166V913.097H996.005C1017.88 914.525 1039.83 905.88 1055.1 890.018C1070.44 874.832 1078.41 853.181 1076.97 831.53V831.455Z" fill="#025679"></path>
<path d="M1580.13 437.078L1545.8 497.745L1535.62 491.957L789.683 79.4618L788.24 80.8902L62.7372 481.808L34.3308 497.745L0 437.078L18.2288 426.177L778.746 5.78861L788.24 0.751768L789.683 0L1580.13 437.078Z" fill="#025679"></path>
<path d="M778.753 283.193H681.685V379.269H778.753V283.193Z" fill="#025679"></path>
<path d="M897.693 283.193H800.625V379.269H897.693V283.193Z" fill="#025679"></path>
<path d="M778.753 400.916H681.685V496.992H778.753V400.916Z" fill="#025679"></path>
<path d="M897.693 400.916H800.625V496.992H897.693V400.916Z" fill="#025679"></path>
</svg></svg></g></g></svg></g><g id="dark-icon"><svg xmlns="http://www.w3.org/2000/svg" version="1.1" xmlns:xlink="http://www.w3.org/1999/xlink" width="1000" height="1000"><g><g transform="matrix(0.6325110689437066,0,0,0.6325110689437066,-5.684341886080802e-14,120.80961416824789)"><svg xmlns="http://www.w3.org/2000/svg" version="1.1" xmlns:xlink="http://www.w3.org/1999/xlink" width="1581" height="1199"><svg width="1581" height="1199" viewBox="0 0 1581 1199" fill="none" xmlns="http://www.w3.org/2000/svg">
<path d="M772.004 1046.01C772.764 1070.59 766.156 1094.42 753.016 1115.32C739.876 1135.54 723.09 1153.59 702.659 1167.34V1168.1C686.633 1178.92 668.328 1186.89 648.657 1191.17C629.668 1195.54 609.996 1198.39 590.249 1198.39C561.083 1198.39 531.841 1192.6 504.878 1181.03C477.838 1168.77 453.078 1152.83 431.887 1132.61L464.015 1081.34C482.244 1096.53 501.991 1108.78 523.106 1118.93C544.297 1129.08 566.931 1134.79 591.008 1134.79C603.389 1134.79 615.845 1133.36 627.466 1129.76C639.162 1126.9 649.34 1121.79 659.594 1115.32C669.088 1108.86 677.139 1100.14 682.911 1090.74C688.76 1079.91 692.405 1067.66 691.646 1055.33C692.405 1038.72 685.798 1022.1 673.417 1010.53C659.518 998.948 644.251 990.303 627.466 983.762C609.237 976.545 589.489 970.005 568.374 963.54C547.943 957.751 527.512 949.106 509.283 938.957C491.054 928.808 475.712 915.126 463.331 898.512C450.951 881.898 445.103 859.495 445.103 831.304C445.103 787.927 458.242 754.699 483.763 731.619C510.042 708.54 543.614 696.963 586.679 696.963H733.344L747.243 803.864L740.712 807.473C727.572 788.002 708.583 772.064 687.469 762.667C665.594 753.27 642.201 748.91 618.883 748.91C607.186 748.91 595.565 750.338 584.552 752.519C573.615 754.699 563.361 758.984 554.627 764.096C545.892 769.208 537.841 777.101 532.752 785.747C526.904 795.895 524.018 808.149 524.701 819.727C523.942 834.912 530.55 849.346 542.93 857.991C556.829 868.14 572.855 876.034 588.882 881.823C607.11 888.288 627.542 894.828 648.732 901.293C669.923 907.082 689.595 916.479 708.583 928.056C726.812 939.633 742.914 954.819 754.535 972.862C766.232 990.904 772.08 1015.49 772.08 1045.86L772.004 1046.01Z" fill="#F3764A"></path>
<path d="M1148.44 833.635C1148.44 851.677 1145.56 870.472 1138.95 887.837C1132.42 903.7 1122.92 918.209 1111.23 930.463C1098.85 942.716 1084.19 952.114 1068.16 958.654C1050.62 965.871 1032.39 968.803 1013.4 968.803H917.09V1192.75H895.899C861.568 1192.75 844.783 1175.39 844.783 1140.73V757.857C845.542 745.603 841.896 733.274 835.289 723.2C827.238 713.052 816.3 706.586 803.92 704.406V696.438H1004.66C1023.65 696.438 1042.64 700.046 1060.11 706.586C1076.89 713.052 1092.92 722.449 1106.06 734.778C1119.2 747.031 1130.14 761.541 1136.75 778.155C1144.8 795.52 1148.44 814.239 1148.44 833.785V833.635ZM1076.97 831.455C1076.97 821.306 1074.77 810.481 1070.44 801.084C1066.03 791.686 1060.19 783.041 1052.89 775.824C1045.6 768.607 1036.87 762.819 1027.37 758.458C1017.88 754.098 1006.94 751.993 996.689 751.993H917.166V913.097H996.005C1017.88 914.525 1039.83 905.88 1055.1 890.018C1070.44 874.832 1078.41 853.181 1076.97 831.53V831.455Z" fill="white"></path>
<path d="M1580.13 437.078L1545.8 497.745L1535.62 491.957L789.683 79.4618L788.24 80.8902L62.7372 481.808L34.3308 497.745L0 437.078L18.2288 426.177L778.746 5.78861L788.24 0.751768L789.683 0L1580.13 437.078Z" fill="white"></path>
<path d="M778.753 283.193H681.686V379.269H778.753V283.193Z" fill="white"></path>
<path d="M897.693 283.193H800.625V379.269H897.693V283.193Z" fill="white"></path>
<path d="M778.753 400.916H681.686V496.992H778.753V400.916Z" fill="white"></path>
<path d="M897.693 400.916H800.625V496.992H897.693V400.916Z" fill="white"></path>
</svg></svg></g></g></svg></g></svg>